<?xml version="1.0" encoding="UTF-8"?>
<svg id="Layer_1" xmlns="http://www.w3.org/2000/svg" version="1.1" viewBox="0 0 279.82 243.16">
  <!-- Generator: Adobe Illustrator 29.1.0, SVG Export Plug-In . SVG Version: 2.1.0 Build 142)  -->
  <defs>
    <style>
      .st0 {
        stroke-linecap: round;
        stroke-linejoin: round;
      }

      .st0, .st1 {
        display: none;
      }

      .st0, .st1, .st2 {
        fill: none;
        stroke: #fff;
        stroke-width: 20.59px;
      }

      .st1, .st2 {
        stroke-miterlimit: 10;
      }
    </style>
  </defs>
  <path class="st1" d="M224.02,228.82H55.17c-11.87,0-21.49-9.62-21.49-21.49v-112.47c0-7.09,3.5-13.72,9.34-17.73l88.02-60.31c7.56-5.18,17.57-5,24.93.45l80.83,59.81c5.48,4.05,8.71,10.46,8.71,17.28v112.97c0,11.87-9.62,21.49-21.49,21.49Z"/>
  <line class="st0" x1="81.03" y1="179.25" x2="199.17" y2="179.25"/>
  <path class="st0" d="M157.43,152.45v21.27c0,1.82.63,3.58,1.79,4.99l27.86,33.85c4.22,5.12.57,12.84-6.06,12.84h-82.83c-6.64,0-10.28-7.72-6.06-12.84l27.89-33.84c1.16-1.41,1.79-3.17,1.79-4.99v-21.27c0-3.03-1.74-5.78-4.47-7.08l-41.52-19.83c-2.73-1.3-4.47-4.06-4.47-7.08V29.54c0-7.22,5.85-13.07,13.07-13.07h110.34c7.22,0,13.07,5.85,13.07,13.07v88.92c0,3.02-1.74,5.78-4.47,7.08l-41.48,19.82c-2.73,1.3-4.47,4.06-4.47,7.08Z"/>
  <path class="st1" d="M207.84,37.35h30.31c10.66,0,18.35,10.22,15.4,20.46l-10.41,36.19c-2.15,7.48-9.37,12.34-17.12,11.5l-18.18-1.95V37.35Z"/>
  <path class="st1" d="M71.35,37.35h-30.31c-10.66,0-18.35,10.22-15.4,20.46l10.41,36.19c2.15,7.48,9.37,12.34,17.12,11.5l18.18-1.95V37.35Z"/>
  <path class="st2" d="M255.76,190.97l-41.85,23.84c-9.91,5.65-22.52,2.38-28.44-7.36l-6.11-10.05c-3.82-6.29-10.65-10.13-18.01-10.13h-42.51c-7.36,0-14.19,3.84-18.01,10.13l-6.11,10.05c-5.93,9.75-18.53,13.01-28.44,7.36l-41.83-23.83c-6.39-3.64-10.44-10.34-10.63-17.69-.24-8.9-.32-21.77.5-34.94,5.83-52.77,36.36-83.31,57.83-98.56,10.73-7.62,25.74-3.53,31.26,8.42h0c3.45,7.46,10.92,12.24,19.13,12.24h35.13c8.22,0,15.69-4.78,19.13-12.24h0c5.52-11.95,20.53-16.04,31.26-8.42,21.47,15.25,52,45.79,57.83,98.56.85,13.18.76,26.04.52,34.95-.21,7.34-4.25,14.03-10.63,17.67Z"/>
  <circle class="st2" cx="187.54" cy="135.51" r="10.18"/>
  <circle class="st2" cx="92.39" cy="135.51" r="10.18"/>
</svg>