<?xml version="1.0" encoding="UTF-8"?>
<!DOCTYPE svg PUBLIC "-//W3C//DTD SVG 1.1//EN" "http://www.w3.org/Graphics/SVG/1.1/DTD/svg11.dtd">
<svg xmlns="http://www.w3.org/2000/svg" version="1.1" width="750px" height="750px" style="shape-rendering:geometricPrecision; text-rendering:geometricPrecision; image-rendering:optimizeQuality; fill-rule:evenodd; clip-rule:evenodd" xmlns:xlink="http://www.w3.org/1999/xlink">
<g><path style="opacity:0.988" fill="#60606b" d="M 574.5,131.5 C 575.469,133.663 576.302,135.996 577,138.5C 582.345,144.011 587.511,149.678 592.5,155.5C 592.04,160.676 590.54,165.676 588,170.5C 574.289,184.712 560.122,198.379 545.5,211.5C 542.645,214.52 539.979,217.687 537.5,221C 535.913,221.862 534.246,222.529 532.5,223C 513.833,241.667 495.167,260.333 476.5,279C 471.865,282.963 467.198,286.963 462.5,291C 442.167,311.333 421.833,331.667 401.5,352C 398.952,354.442 395.952,356.108 392.5,357C 386.551,357.204 380.718,356.37 375,354.5C 374.5,354.667 374,354.833 373.5,355C 374.252,355.671 374.586,356.504 374.5,357.5C 367.778,348.271 360.111,339.771 351.5,332C 350.099,331.59 348.766,331.09 347.5,330.5C 320.07,296.64 292.403,262.974 264.5,229.5C 260.612,219.327 262.945,210.827 271.5,204C 330.944,148.215 390.611,92.8816 450.5,38C 456.5,34.6667 462.5,34.6667 468.5,38C 503.993,69.7016 539.326,100.868 574.5,131.5 Z"/></g>
<g><path style="opacity:0.973" fill="#5b5b6d" d="M 618.5,176.5 C 615.917,175.776 613.251,174.943 610.5,174C 604.968,167.303 598.968,161.136 592.5,155.5C 587.511,149.678 582.345,144.011 577,138.5C 576.302,135.996 575.469,133.663 574.5,131.5C 574.333,111.497 574.5,91.4972 575,71.5C 576.942,65.2236 581.109,61.3903 587.5,60C 618.833,59.3333 650.167,59.3333 681.5,60C 686.667,61.1667 689.833,64.3333 691,69.5C 691.167,85.1667 691.333,100.833 691.5,116.5C 691.638,133.55 691.138,150.55 690,167.5C 687.778,171.388 684.612,174.221 680.5,176C 659.836,176.5 639.169,176.667 618.5,176.5 Z"/></g>
<g><path style="opacity:1" fill="#444451" d="M 459.5,109.5 C 468.304,109.14 473.304,113.307 474.5,122C 472.714,133.264 470.547,144.43 468,155.5C 466.023,176.191 462.523,196.525 457.5,216.5C 455.055,218.568 452.722,220.735 450.5,223C 417.558,228.748 384.891,235.415 352.5,243C 346.306,244.711 341.14,243.211 337,238.5C 336.333,235.167 336.333,231.833 337,228.5C 341.371,222.026 346.871,216.526 353.5,212C 389.086,177.911 424.419,143.745 459.5,109.5 Z"/></g>
<g><path style="opacity:0.993" fill="#4d4d5c" d="M 592.5,155.5 C 598.968,161.136 604.968,167.303 610.5,174C 613.251,174.943 615.917,175.776 618.5,176.5C 638.531,199.024 660.365,220.358 684,240.5C 695.007,251.841 705.674,263.508 716,275.5C 720.927,282.447 720.594,289.114 715,295.5C 659.753,353.077 604.253,410.244 548.5,467C 544.189,469.037 539.689,470.537 535,471.5C 529.803,470.653 524.97,468.819 520.5,466C 506.313,457.408 492.646,448.075 479.5,438C 460.247,424.557 440.914,411.39 421.5,398.5C 420.182,394.668 417.848,391.501 414.5,389C 400.165,379.838 386.831,369.338 374.5,357.5C 374.586,356.504 374.252,355.671 373.5,355C 374,354.833 374.5,354.667 375,354.5C 380.718,356.37 386.551,357.204 392.5,357C 395.952,356.108 398.952,354.442 401.5,352C 421.833,331.667 442.167,311.333 462.5,291C 467.198,286.963 471.865,282.963 476.5,279C 495.167,260.333 513.833,241.667 532.5,223C 534.246,222.529 535.913,221.862 537.5,221C 539.979,217.687 542.645,214.52 545.5,211.5C 560.122,198.379 574.289,184.712 588,170.5C 590.54,165.676 592.04,160.676 592.5,155.5 Z"/></g>
<g><path style="opacity:1" fill="#444451" d="M 632.5,274.5 C 641.514,272.497 647.181,275.831 649.5,284.5C 648.637,287.233 647.471,289.899 646,292.5C 607.553,329.612 569.053,366.778 530.5,404C 520.737,409.856 514.737,407.189 512.5,396C 516.945,368.164 521.445,340.33 526,312.5C 525.614,301.385 530.781,294.885 541.5,293C 572.057,287.256 602.39,281.089 632.5,274.5 Z"/></g>
<g><path style="opacity:0.961" fill="#9191b7" d="M 347.5,330.5 C 348.766,331.09 350.099,331.59 351.5,332C 360.111,339.771 367.778,348.271 374.5,357.5C 386.831,369.338 400.165,379.838 414.5,389C 417.848,391.501 420.182,394.668 421.5,398.5C 402.19,417.809 382.524,436.809 362.5,455.5C 358.794,457.356 355.46,459.856 352.5,463C 353.056,463.383 353.389,463.883 353.5,464.5C 350.167,468.5 346.5,472.167 342.5,475.5C 341.687,474.347 340.687,474.347 339.5,475.5C 338.571,476.689 338.238,478.022 338.5,479.5C 336.5,481.167 334.5,482.833 332.5,484.5C 331.5,484.5 330.5,484.5 329.5,484.5C 329.5,485.5 329.5,486.5 329.5,487.5C 317.087,499.582 304.753,511.582 292.5,523.5C 292.103,522.475 291.437,522.308 290.5,523C 286.23,526.761 282.563,530.928 279.5,535.5C 277.36,538.061 275.027,540.395 272.5,542.5C 272.631,541.624 272.298,540.957 271.5,540.5C 270.008,542.156 268.342,543.656 266.5,545C 266.833,545.333 267.167,545.667 267.5,546C 266.552,546.483 265.552,546.649 264.5,546.5C 264.5,547.833 264.5,549.167 264.5,550.5C 259.859,554.805 255.193,559.139 250.5,563.5C 246.728,566.094 243.061,568.927 239.5,572C 240.056,572.383 240.389,572.883 240.5,573.5C 234.833,578.5 229.5,583.833 224.5,589.5C 223.761,589.369 223.094,589.536 222.5,590C 221.262,590.69 221.262,591.19 222.5,591.5C 212.927,599.569 203.76,608.235 195,617.5C 193.716,637.115 193.049,656.782 193,676.5C 189.373,685.457 182.873,691.29 173.5,694C 138.47,694.452 103.47,693.786 68.5,692C 62.0743,688.645 57.9076,683.479 56,676.5C 55.3333,654.5 55.3333,632.5 56,610.5C 56.073,596.778 56.7397,583.112 58,569.5C 61.1918,563.642 65.6918,559.142 71.5,556C 88.7951,554.754 106.128,554.088 123.5,554C 157.027,521.806 189.86,488.973 222,455.5C 264.259,414.408 306.093,372.741 347.5,330.5 Z"/></g>
<g><path style="opacity:0.006" fill="#efefef" d="M 362.5,455.5 C 359.833,458.833 356.833,461.833 353.5,464.5C 353.389,463.883 353.056,463.383 352.5,463C 355.46,459.856 358.794,457.356 362.5,455.5 Z"/></g>
<g><path style="opacity:0.008" fill="#3526be" d="M 342.5,475.5 C 341.5,477.167 340.167,478.5 338.5,479.5C 338.238,478.022 338.571,476.689 339.5,475.5C 340.687,474.347 341.687,474.347 342.5,475.5 Z"/></g>
<g><path style="opacity:0.008" fill="#6051f7" d="M 332.5,484.5 C 331.833,485.833 330.833,486.833 329.5,487.5C 329.5,486.5 329.5,485.5 329.5,484.5C 330.5,484.5 331.5,484.5 332.5,484.5 Z"/></g>
<g><path style="opacity:0.006" fill="#fefffe" d="M 292.5,523.5 C 288.167,527.5 283.833,531.5 279.5,535.5C 282.563,530.928 286.23,526.761 290.5,523C 291.437,522.308 292.103,522.475 292.5,523.5 Z"/></g>
<g><path style="opacity:0.021" fill="#7467de" d="M 272.5,542.5 C 270.167,545.5 267.5,548.167 264.5,550.5C 264.5,549.167 264.5,547.833 264.5,546.5C 265.552,546.649 266.552,546.483 267.5,546C 267.167,545.667 266.833,545.333 266.5,545C 268.342,543.656 270.008,542.156 271.5,540.5C 272.298,540.957 272.631,541.624 272.5,542.5 Z"/></g>
<g><path style="opacity:0.006" fill="#fbfbfb" d="M 250.5,563.5 C 247.5,567.167 244.167,570.5 240.5,573.5C 240.389,572.883 240.056,572.383 239.5,572C 243.061,568.927 246.728,566.094 250.5,563.5 Z"/></g>
<g><path style="opacity:0.004" fill="#0000ff" d="M 224.5,589.5 C 224.167,590.5 223.5,591.167 222.5,591.5C 221.262,591.19 221.262,590.69 222.5,590C 223.094,589.536 223.761,589.369 224.5,589.5 Z"/></g>
</svg>
